{"accessors" : [{"bufferView" : 0, "byteOffset" : 0, "componentType" : 5123, "count" : 888, "type" : "SCALAR", "max" : [769], "min" : [0]}, {"bufferView" : 1, "byteOffset" : 0, "componentType" : 5126, "count" : 770, "type" : "VEC3", "max" : [0.1546570062637329, 0.1546570062637329, 0.4750460088253021], "min" : [-0.1546570062637329, -0.1546570062637329, -0.345782995223999], "name" : "POSITION"}, {"bufferView" : 1, "byteOffset" : 12, "componentType" : 5126, "count" : 770, "type" : "VEC3", "max" : [0.9613772034645081, 0.9613772034645081, 0.9666265845298767], "min" : [-0.9613772034645081, -0.9613772034645081, -0.8736466765403748], "name" : "NORMAL"}, {"bufferView" : 1, "byteOffset" : 24, "componentType" : 5126, "count" : 770, "type" : "VEC2", "max" : [0.9743300080299377, -0.014743000268936157], "min" : [0.014743000268936157, -0.9852570295333862], "name" : "TEXCOORD_0"}], "asset" : {"generator" : "Aspose.3D 22.3", "version" : "2.0"}, "buffers" : [{"uri" : "data:application/octet-stream;base64,", "byteLength" : 30200}], "bufferViews" : [{"buffer" : 0, "byteOffset" : 0, "byteLength" : 1776, "target" : 34963}, {"buffer" : 0, "byteOffset" : 1780, "byteLength" : 28416, "byteStride" : 32, "target" : 34962}], "materials" : [{"name" : "45ACP_Mats", "pbrMetallicRoughness" : {"baseColorFactor" : [1, 1, 1, 1], "metallicFactor" : 0, "roughnessFactor" : 0}, "emissiveFactor" : [1, 1, 1], "alphaMode" : "OPAQUE", "doubleSided" : false}], "meshes" : [{"primitives" : [{"attributes" : {"POSITION" : 1, "NORMAL" : 2, "TEXCOORD_0" : 3}, "indices" : 0, "material" : 0, "mode" : 4}], "name" : "45_ACP_Low_Poly"}], "nodes" : [{"matrix" : [1, 0, 0, 0, 0, -1.6291842275251156E-07, -0.9999999999999868, 0, 0, 0.9999999999999868, -1.6291842275251156E-07, 0, 0, 0, 0, 1], "mesh" : 0, "name" : "45_ACP_Low_Poly"}], "scene" : 0, "scenes" : [{"nodes" : [0]}]}